<?xml version="1.0" encoding="UTF-8"?>
<!DOCTYPE svg PUBLIC "-//W3C//DTD SVG 20010904//EN" "http://www.w3.org/TR/2001/REC-SVG-20010904/DTD/svg10.dtd">
<svg xmlns="http://www.w3.org/2000/svg" version="1.0" width="300.000000pt" height="300.000000pt" viewBox="0 0 300.000000 300.000000" preserveAspectRatio="xMidYMid meet">
    <metadata>Created by potrace 1.16, written by Peter Selinger 2001-2019</metadata>
    <g transform="translate(0.000000,300.000000) scale(0.100000,-0.100000)" fill="#000000" stroke="none">
        <path d="M1013 2003 c-8 -33 -14 -40 -53 -53 l-45 -14 43 -10 c40 -8 43 -12 54 -55 l12 -46 13 46 c12 43 17 47 56 56 42 10 39 15 -15 27 -21 5 -30 15 -38 46 -6 22 -12 40 -14 40 -2 0 -8 -17 -13 -37z" />
        <path d="M650 1535 l0 -255 45 0 45 0 0 255 0 255 -45 0 -45 0 0 -255z" />
        <path d="M830 1535 l0 -255 44 0 45 0 1 255 1 255 -46 0 -45 0 0 -255z" />
        <path d="M315 1676 c-5 -3 -22 -7 -37 -10 -47 -10 -96 -63 -113 -119 -18 -60 -19 -89 -5 -139 36 -126 206 -181 293 -94 16 16 17 16 17 -8 0 -24 3 -26 45 -26 l45 0 0 195 0 195 -45 0 c-38 0 -45 -3 -45 -20 0 -20 0 -20 -39 1 -38 20 -96 32 -116 25z m84 -100 c37 -20 84 -89 77 -114 -4 -10 -24 -38 -45 -61 -32 -35 -44 -41 -78 -41 -103 0 -149 126 -73 202 32 32 74 37 119 14z" />
        <path d="M1116 1668 c-21 -6 -55 -27 -76 -48 -89 -89 -71 -269 33 -323 53 -27 149 -32 212 -10 47 17 50 20 48 51 0 18 -3 35 -6 38 -2 2 -20 -3 -40 -11 -43 -18 -126 -20 -161 -4 -14 7 -32 26 -40 43 l-15 31 144 3 145 3 0 47 c-1 131 -115 215 -244 180z m105 -78 c16 -9 49 -58 49 -75 0 -3 -43 -5 -95 -5 -108 0 -118 9 -66 61 31 31 75 38 112 19z" />
        <path d="M1541 1670 c-102 -25 -159 -133 -131 -251 28 -116 153 -171 263 -115 l47 23 0 -29 c0 -45 -15 -65 -64 -83 -37 -14 -53 -15 -96 -6 -28 6 -65 18 -82 27 -36 18 -48 9 -48 -39 0 -42 70 -71 170 -71 65 -1 82 3 123 28 79 46 87 72 87 314 l0 202 -45 0 c-39 0 -45 -3 -45 -21 l0 -21 -33 21 c-39 24 -99 33 -146 21z m98 -81 c33 -12 81 -79 81 -115 0 -50 -68 -114 -122 -114 -41 0 -86 36 -99 80 -17 56 1 114 44 140 37 23 52 24 96 9z" />
        <path d="M2075 1672 c-11 -2 -34 -15 -52 -28 l-32 -24 -3 23 c-2 18 -10 23 -45 25 l-43 3 0 -195 0 -196 45 0 45 0 0 109 c0 93 3 115 20 144 24 40 76 69 108 60 17 -4 22 -1 22 13 0 11 3 29 6 40 5 18 1 22 -23 26 -15 2 -37 2 -48 0z" />
        <path d="M2286 1666 c-57 -21 -87 -47 -113 -96 -43 -80 -27 -186 36 -243 78 -70 194 -74 280 -10 70 53 93 178 48 258 -45 79 -165 122 -251 91z m119 -80 c46 -20 69 -65 62 -130 -7 -78 -68 -119 -146 -100 -94 24 -111 181 -23 228 34 19 64 20 107 2z" />
        <path d="M2671 1648 c-29 -78 -34 -98 -27 -105 4 -4 13 0 20 10 16 21 56 23 56 2 0 -8 7 -15 15 -15 20 0 19 9 -6 75 -22 58 -44 71 -58 33z m25 -55 c-11 -11 -17 4 -9 23 7 18 8 18 11 1 2 -10 1 -21 -2 -24z" />
        <path d="M2795 1605 c0 -64 0 -65 28 -65 15 0 27 5 27 10 0 6 -4 10 -10 10 -5 0 -10 20 -10 45 0 25 5 45 11 45 5 0 7 5 4 10 -3 6 -16 10 -28 10 -20 0 -22 -5 -22 -65z" />
    </g>
</svg>