<?xml version="1.0" encoding="UTF-8" standalone="no"?>
<!-- Created with Inkscape (http://www.inkscape.org/) -->
<svg id="svg3313" xmlns:inkscape="http://www.inkscape.org/namespaces/inkscape" xmlns:rdf="http://www.w3.org/1999/02/22-rdf-syntax-ns#" xmlns="http://www.w3.org/2000/svg" sodipodi:docname="University_of_chittagong_logo.jpg" height="376.004402029" viewBox="0 0 290.0 410.0" width="265.954333142" version="1.1" xmlns:cc="http://creativecommons.org/ns#" xmlns:dc="http://purl.org/dc/elements/1.1/" inkscape:version="0.48.4 r9939" xmlns:sodipodi="http://sodipodi.sourceforge.net/DTD/sodipodi-0.dtd">
 <metadata id="metadata3319">
  <rdf:RDF>
   <cc:Work rdf:about="">
    <dc:format>image/svg+xml</dc:format>
    <dc:type rdf:resource="http://purl.org/dc/dcmitype/StillImage"/>
    <dc:title/>
   </cc:Work>
  </rdf:RDF>
 </metadata>
 <sodipodi:namedview id="namedview3315" bordercolor="#666666" inkscape:pageshadow="2" guidetolerance="10" pagecolor="#ffffff" gridtolerance="10" inkscape:window-maximized="1" inkscape:zoom="0.8" objecttolerance="10" borderopacity="1" inkscape:current-layer="svg3313" inkscape:cx="153" inkscape:cy="272.5" inkscape:window-y="-8" inkscape:window-x="-8" inkscape:window-width="1600" showgrid="false" inkscape:pageopacity="0" inkscape:window-height="838"/>
 <path id="path3357-7" inkscape:connector-curvature="0" fill="#111215" d="m129.36,409.01c-10.792-0.78923-21.312-2.851-30.937-6.0634-8.3489-2.7865-22.313-9.5981-26.707-13.028-2.0042-1.5641-3.9653-2.8439-4.3582-2.8439-1.1846,0-13.647-10.205-17.964-14.71-6.6596-6.9496-8.9748-9.6164-11.538-13.29-1.3431-1.925-2.8088-3.95-3.2571-4.5-4.9453-6.0666-14.281-23.136-18.048-33-5.4206-14.193-8.7021-24.433-8.6959-27.136,0.003-1.1746-0.66728-3.4246-1.4889-5-0.82161-1.5754-1.5126-4.2143-1.5356-5.8643s-0.69372-5.7-1.4905-9c-2.116-8.7636-2.0637-60.144,0.0754-73.956,3.7167-24,5.1602-31.255,11.349-57.044,1.0559-4.4,2.683-10.7,3.6156-14,0.93268-3.3,2.1053-7.8,2.6058-10,0.50049-2.2,1.2953-4.9,1.7663-6,1.6005-3.738,5.1369-15.992,5.1224-17.75-0.008-0.9625,0.43551-1.75,0.98551-1.75s0.99221-0.5625,0.98269-1.25c-0.0288-2.0777,8.3882-27.225,9.2324-27.583,0.43172-0.18334,0.78494-1.5457,0.78494-3.0275s0.61115-3.5818,1.3581-4.6667c0.74696-1.0849,1.651-3.5728,2.0089-5.5286,0.35795-1.9558,1.5254-5.2714,2.5942-7.368l1.9434-3.8119,11.77,0.17418c6.4738,0.0958,11.956,0.35947,12.182,0.58593,0.22647,0.22646-0.0593,1.6637-0.63499,3.1938-0.57572,1.5301-2.9335,8.8571-5.2396,16.282-2.306,7.425-4.55,14.4-4.9865,15.5-1.5159,3.8202-4.9964,16.065-4.9964,17.578,0,0.83699-0.37879,1.9493-0.84175,2.4718-1.6481,1.86-3.0515,11.951-2.2879,16.45,1.2866,7.5807,4.6956,11.867,11.13,13.993,2.9566,0.977,4.1987,0.85609,8-0.77881,4.6361-1.9939,13.122-10.443,15.279-15.214,0.37312-0.825,1.8099-3.3,3.1928-5.5s2.7918-4.675,3.1308-5.5c0.33902-0.825,1.8803-4.2,3.425-7.5s3.1255-7.125,3.5128-8.5c0.38729-1.375,1.057-2.95,1.4882-3.5,0.43122-0.55,1.1031-3.143,1.493-5.7623,0.38994-2.6193,1.081-4.9922,1.5358-5.2733,0.45476-0.28105,1.1346-2.638,1.5108-5.2377,0.37615-2.5997,1.0123-5.1767,1.4136-5.7267,0.85291-1.1689,4.6258-17.958,5.5056-24.5,0.33286-2.475,1.0258-6.525,1.5398-9,0.51404-2.475,1.0888-8.55,1.2772-13.5l0.34258-9h26.426,26.426l0.27817,5.5c0.82815,16.375,6.2258,47.402,9.2192,52.995,0.55145,1.0304,1.0026,2.6818,1.0026,3.6698,0,1.6201,3.0842,10.5,4.9903,14.368,0.41546,0.84306,1.0747,2.9868,1.465,4.7638,0.39031,1.777,2.0225,5.6913,3.6272,8.6983,1.6046,3.007,2.9175,6.1508,2.9175,6.9862s0.39541,1.5189,0.87868,1.5189,1.4379,1.35,2.1213,3c0.68345,1.65,1.5893,3,2.0129,3,0.42365,0,1.0347,1.0537,1.358,2.3416,0.32323,1.2879,3.5812,5.4096,7.2398,9.1594,6.1593,6.3128,7.0245,6.8536,11.679,7.3008,5.3657,0.51557,11.711-1.8736,11.711-4.4096,0-0.71106,0.74386-1.7091,1.653-2.2179,3.5134-1.9662,3.3758-22.038-0.2044-29.825-0.79675-1.7331-1.4486-3.8441-1.4486-4.691,0-0.84692-0.41084-1.7938-0.91299-2.1041-0.50214-0.31035-1.2229-2.3987-1.6017-4.6408s-1.3152-5.2772-2.0809-6.7448c-0.76567-1.4676-1.3949-3.0503-1.3983-3.5171-0.003-0.46688-0.60712-2.2669-1.3416-4-2.0281-4.7855-3.7349-9.7204-4.8942-14.151-0.57566-2.2-1.4345-4.4275-1.9085-4.95-0.47401-0.5225-0.86183-1.76-0.86183-2.75,0-1.6373,1.1296-1.8,12.5-1.8,11.236,0,12.501,0.177,12.506,1.75,0.003,0.9625,0.58333,2.875,1.2888,4.25,0.70542,1.375,2.1097,4.75,3.1206,7.5,2.0499,5.5764,3.2522,8.4689,6.8587,16.5,1.3584,3.025,3.262,7.975,4.2302,11,0.96817,3.025,2.0988,5.95,2.5125,6.5,0.41372,0.55,1.0579,2.575,1.4316,4.5,0.37365,1.925,1.2782,4.85,2.0102,6.5,2.51,5.6581,3.3722,8.0061,4.4069,12,0.56989,2.2,1.5651,6.025,2.2115,8.5,0.64644,2.475,1.7876,6.075,2.5358,8,0.74828,1.925,1.6017,5.075,1.8965,7,0.29482,1.925,0.93415,4.625,1.4207,6,2.1038,5.9448,3.9038,12.854,4.5592,17.5,0.38797,2.75,0.99908,5.45,1.358,6,0.74593,1.143,2.6152,10.881,4.6069,24,0.7515,4.95,1.8966,11.25,2.5447,14,0.7441,3.1574,1.2324,15.872,1.325,34.5,0.1222,24.58-0.14826,31.001-1.6215,38.5-3.3741,17.174-5.8406,28.009-6.7691,29.736-0.51337,0.95504-0.9334,2.4205-0.9334,3.2567,0,0.83614-1.6128,5.6797-3.5841,10.764-10.798,27.849-24.536,48.041-43.416,63.813-3.575,2.9866-6.725,5.6552-7,5.9302-0.4842,0.4842-6.8925,4.0523-12,6.6815-4.4505,2.291-13.397,6.0031-17.5,7.2608-2.2,0.67444-5.35,1.6902-7,2.2574-1.65,0.5671-5.025,1.4016-7.5,1.8544s-6.75,1.2627-9.5,1.7998c-6.9741,1.3621-30.04,1.9559-42,1.0814zm18.342-17.185-0.34192-5.25,3.25-0.31336c3.114-0.30024,4.3681,1.0043,2.2337,2.3234-2.0997,1.2977,0.3023,2.4899,5.0163,2.4899,4.8897,0,7.4948-1.4892,4.5691-2.6118-0.85671-0.32874-1.3079-1.0018-1.0027-1.4956,0.65828-1.0651,4.4336,0.73755,4.4336,2.117,0,0.51653-1.4017,1.664-3.1149,2.5499-1.7132,0.88593-2.7257,1.9466-2.25,2.3571,1.1445,0.9876,9.4465,3.3352,9.964,2.8177,0.22243-0.22244-0.26651-2.6161-1.0865-5.3193-1.8874-6.2218-1.8987-6.0807,0.5358-6.7173,1.7026-0.44523,2.453,0.37922,4.445,4.8834,1.3181,2.9805,2.8713,5.419,3.4516,5.419,1.3319,0,1.3975,0.40359-0.92849-5.716l-1.9825-5.216,3.733-0.97857c9.8328-2.5776,10.117-2.5406,5.3917,0.70118-5.0239,3.4468-4.4654,4.1719,3.5717,4.6373,3.1733,0.18375,6.6258,0.68714,7.6722,1.1186,1.6504,0.68059,1.525,0.091-0.94671-4.4504-2.3898-4.391-2.616-5.3825-1.4025-6.1502,2.1196-1.341,2.3463-1.2323,4.2876,2.0541,0.97468,1.65,2.5921,3,3.5943,3,1.0818,0,2.327-1.2189,3.0648-3,1.5106-3.647,2.1986-3.7105,5.4091-0.5,3.3128,3.3128,5.2964,3.2124,2.6635-0.13486-1.1399-1.4492-2.0726-3.4742-2.0726-4.5,0-2.8283-2.9933-2.264-6.616,1.2473-2.9188,2.829-5.384,3.2142-5.384,0.84113,0-0.71382,9.3131-6.0749,15.25-8.7787,0.4125-0.18785,0.75,0.3403,0.75,1.1737,0,0.83338,1.3668,2.4885,3.0373,3.678,2.2986,1.6368,2.8938,2.687,2.4471,4.3181-0.58006,2.1183-0.55581,2.1159,1.4125-0.14355,2.4749-2.8409,2.0368-4.0659-2.511-7.0207-3.4394-2.2346-3.5062-2.3902-1.8231-4.25,2.3658-2.6142,3.0638-2.4772,8.0024,1.5695,6.1741,5.0592,7.8415,4.223,2.0061-1.0061l-4.9286-4.4165,6.4286-5.9332c3.5358-3.2632,6.6529-5.7189,6.9271-5.457,0.27413,0.26193-0.28837,1.0516-1.25,1.7547-0.96164,0.70317-1.7484,1.7191-1.7484,2.2577,0,0.53858-1.125,1.4918-2.5,2.1183-1.6781,0.76458-2.5,1.9459-2.5,3.5931,0,3.2223,3.272,4.2959,6.549,2.1487,2.958-1.9381,3.2173-4.5599,0.45104-4.5599-1.3333,0-2,0.66667-2,2,0,1.1-0.375,2-0.83333,2-3.2012,0-1.3137-4.698,2.0811-5.1802,1.5041-0.2136,2.1546-0.90111,1.9584-2.0698-0.37791-2.2508,2.9642-2.3397,6.2798-0.16721,1.3286,0.87054,3.2234,1.4272,4.2107,1.2371,1.2756-0.24565,0.20457-1.3171-3.7008-3.7024-3.0228-1.8462-5.6928-3.5372-5.9333-3.7578-0.50268-0.46102,6.0676-6.2577,7.1624-6.319,0.39875-0.0224,0.455,1.3094,0.125,2.9594-0.77647,3.8824,0.61457,3.848,5.1419-0.12701,1.9588-1.7198,5.237-3.708,7.2848-4.4182l3.7233-1.2912-3-1.1868c-1.65-0.6527-4.575-1.7654-6.5-2.4726-1.925-0.70724-3.3875-1.785-3.25-2.395,0.5524-2.4508-1.8661-0.88554-4.1003,2.6538-7.0046,11.096-21.456,26.093-23.767,24.665-0.6998-0.4325-0.96176-0.16786-0.6764,0.68331,0.80251,2.3937-15.215,11.271-28.88,16.006-9.794,3.3936-16.326,4.6125-16.326,3.0466,0-1.4742,3.2087-3.0932,8.2965-4.1862,4.0834-0.87724,4.0397-0.89463-1.531-0.60892-6.1009,0.3129-10.308,2.7748-9.2879,5.4344,0.42071,1.0964-0.15539,1.3252-2.4778,0.98437-2.6455-0.38827-2.9469-0.19517-2.3975,1.5359,0.52026,1.6392,0.30736,1.843-1.237,1.1842-1.026-0.4377-2.6529-0.72274-3.6154-0.63341-4.204,0.39015-18.787-0.36536-25.55-1.3237-3.295-0.46692-5.1531-1.1858-4.9122-1.9003,0.56653-1.6798,8.8322-1.5745,11.493,0.14631,1.2547,0.81141,2.534,1.2225,2.8429,0.91356,0.95938-0.95937-5.3678-3.7123-9.9874-4.3455-3.5754-0.49007-4.7706-0.22984-6.3922,1.3918-1.097,1.097-2.6133,2.2455-3.3695,2.5522-0.94164,0.38193-0.64981,0.77745,0.92591,1.2549,2.3901,0.72428,2.4023,0.94722,0.50134,9.1874-0.35837,1.5534-0.061,2.25,0.96051,2.25,1.0204,0,1.6854-1.5518,2.1428-5,0.64234-4.8422,0.76479-4.9982,3.8788-4.9424,1.7686,0.0317,5.0156,0.39996,7.2156,0.81836l4,0.76073-4.5,0.79424c-7.2232,1.2749-8.0934,2.197-3.7821,4.0076,2.0448,0.85877,4.0698,1.5714,4.5,1.5836,0.43017,0.0122,1.9071,0.90222,3.2821,1.9778,3.728,2.9161,4.2166,2.5028,3.8419-3.25zm17.711,2.3354c-0.32198-0.52097-0.15917-1.2106,0.3618-1.5326,0.52097-0.32198,1.2106-0.15917,1.5326,0.3618,0.32198,0.52097,0.15917,1.2106-0.3618,1.5326-0.52097,0.32198-1.2106,0.15917-1.5326-0.3618zm-24.42-2.4688c-2.0554-1.1396-2.1434-1.3985-0.66821-1.9646,3.0083-1.1544,4.5356-0.70049,4.5356,1.348,0,2.3189-0.61905,2.4176-3.8673,0.61658zm44.867-5.2563c0-0.76126,3.1933-3.283,4.2148-3.3284,0.39315-0.0175,1.1965,0.8682,1.7852,1.9682,0.97654,1.8247,0.76049,2-2.4648,2-1.9444,0-3.5352-0.28789-3.5352-0.63976zm60-44.267c0-1.4821-0.50074-1.7774-2.25-1.3266-2.0826,0.53666-2.1409,0.4367-0.78297-1.3436,0.80687-1.0579,1.5382-2.0547,1.6252-2.2153,0.087-0.16051,2.0678,0.47224,4.4018,1.4061l4.2436,1.698-2.3688,1.8217c-3.0705,2.3613-4.8688,2.3465-4.8688-0.0403zm-135.96,43.81c0.74535-2.2584,1.9424-4.3316,2.6601-4.607,2.6503-1.017,1.1146-2.1294-6.6907-4.8465-4.3976-1.5308-8.8738-3.6016-9.9473-4.6016-1.1263-1.0493-2.2063-1.4064-2.5536-0.84433-0.33107,0.53568-1.9101-0.36422-3.5089-1.9998-2.6169-2.6771-3.0032-2.8017-3.872-1.2492-0.86548,1.5465-1.1968,1.4301-3.2091-1.1281-3.6659-4.6604-10.914-6.737-10.914-3.1269,0,1.56,4.199,2.8057,5.0137,1.4874,0.83077-1.3442,4.6251,1.5328,5.269,3.9952,0.29626,1.1329-0.2082,2.9483-1.1385,4.0972l-1.6705,2.0629-2.4112-2.5666c-1.9112-2.0344-2.0762-2.5666-0.79589-2.5666,2.1604,0,3.2296-1.9037,1.8462-3.2871-0.61208-0.61208-1.113-0.68537-1.1131-0.16287-0.00025,1.1341-5.9753,1.2325-7.7337,0.12736-1.0653-0.6695-1.1345-2.1446-0.3779-8.0498,0.0615-0.47985,0.79766-0.30322,1.636,0.3925,4.5358,3.7644,1.6434-5.056-2.9929-9.1267-2.02-1.7736-3.4016-3.789-3.113-4.5411,0.29089-0.75804-0.12643-1.3522-0.9497-1.3522-2.8479,0-1.4148,3.3675,3.2596,7.659,2.6005,2.3875,4.2237,4.341,3.6072,4.341-1.3586,0-13.391-11.586-19.213-18.5-3.491-4.1458-4.1048-4.5538-3.5926-2.3881,0.55258,2.3365,0.18111,2.7866-3.5231,4.2688-3.3185,1.3278-4.0779,2.0931-3.8238,3.8537,0.6109,4.2324,11.344,8.9581,13.27,5.8424,0.31383-0.50778-0.3904-2.552-1.565-4.5427-1.1745-1.9907-1.8548-3.9002-1.5116-4.2434,0.34318-0.34319,0.73647-0.42696,0.87397-0.18617,0.1375,0.2408,2.4678,2.7753,5.1786,5.6323l4.9286,5.1945-2.6786,2.107c-3.4758,2.734-3.3864,4.652,0.31513,6.7583,1.6465,0.93692,2.9965,2.0927,3,2.5685,0.008,1.0717-5.0432-2.1443-6.7377-4.2899-0.68419-0.86633-1.0131-2.5876-0.73095-3.8251,0.57081-2.5034-0.98039-3.1118-1.89-0.74132-1.2152,3.1669,1.9185,7.7083,7.2103,10.449,2.0148,1.0435,2.6193,0.92067,4.289-0.87151,1.069-1.1474,2.0429-2.0862,2.1643-2.0862,0.12139,0,0.21636,1.4386,0.21105,3.1968-0.008,2.7448,0.76773,3.7422,5.4882,7.0538,3.0238,2.1214,5.8607,4.8379,6.3041,6.0367,0.77103,2.0843,0.95537,2.0054,4.2146-1.8038,1.8746-2.1909,3.4252-4.321,3.4459-4.7334,0.0645-1.2873,2.3-0.8225,4.1659,0.86617,1.7072,1.545,1.6776,1.7754-0.67126,5.2321-2.437,3.5863-3.1495,6.1533-1.7071,6.1499,0.4125-0.00098,2.0288-2.026,3.5918-4.5s3.363-4.4839,4-4.4665c0.637,0.0175,2.7203,1.6011,4.6296,3.5193l3.4714,3.4875-3.3227-0.66454c-2.8977-0.57953-3.2762-0.42209-2.9592,1.2307,0.21467,1.1193,1.7735,2.3526,3.8076,3.0124,1.8943,0.61442,4.1388,2.0601,4.9878,3.2127,2.1482,2.9162,2.5385,2.7309,4.0788-1.9361zm-4.961-3.5875c-1.2218-4.4249-0.85002-4.9808,2.3544-3.5207,2.2341,1.0179,2.3411,1.3645,1.285,4.1624-1.5125,4.0072-2.399,3.8509-3.6394-0.64171zm-45.971-24.68c-0.89489-1.0783-0.57393-1.7444,1.4931-3.0988,2.4127-1.5809,2.7668-1.5915,4.2318-0.12646,1.185,1.185,1.2568,1.5988,0.27748,1.5988-0.76363,0-1.0783,0.63308-0.74567,1.5,0.75231,1.9605-3.6467,2.0663-5.2567,0.12647zm-14.855-11.84c-2.9865-1.4404-2.8371-2.4246,0.64135-4.2233,2.6366-1.3634,2.935-1.3437,3.3865,0.22432,0.27236,0.94572,0.8194,2.507,1.2156,3.4695,0.84228,2.046-1.5899,2.2916-5.2435,0.52951zm209.75,0.0981c0-1.2056-2.7384-1.1098-3.5,0.12244-1.0809,1.7489,0.52195,3.2267,2.089,1.9261,0.77603-0.64405,1.411-1.5659,1.411-2.0486zm-130.22-5.012c3.7413-1.8111,4.7608-1.9388,7.0481-0.8829,4.4931,2.0742,11.513,3.9952,14.641,4.0066,3.3638,0.0123,11.26-2.6775,13.574-4.6238,1.2688-1.0673,2.0618-1.0241,4.5,0.24525,5.3322,2.7761,13.367,3.7248,19.46,2.2979,3.025-0.70843,5.8599-1.8777,6.2997-2.5983,1.1039-1.8087,4.2684-1.6394,7.3726,0.3946,1.8555,1.2158,4.7858,1.7178,10.215,1.75,6.848,0.0406,8.0573-0.25626,12.036-2.9548,2.4329-1.65,4.583-3.4879,4.778-4.0842,0.19504-0.59628-3.1455-3.9428-7.4234-7.4367s-7.928-6.7186-8.1114-7.1659c-0.66361-1.6191-2.3408-0.71668-8.7102,4.6867-3.5658,3.025-7.0519,5.5-7.7468,5.5-1.2515,0-10.207-6.3546-13.265-9.4124-1.979-1.979-2.863-1.9935-4.4565-0.0734-0.69118,0.83282-4.0175,3.6838-7.3918,6.3356l-6.1351,4.8214-6.0709-4.6044c-3.339-2.5324-6.8499-5.3834-7.8021-6.3356-0.95217-0.9522-1.9674-1.7312-2.2561-1.7312-0.28868,0-3.294,2.3776-6.6786,5.2836-10.394,8.9245-8.731,8.7404-16.526,1.8294-3.7924-3.3622-7.51-6.0947-8.2613-6.0724-0.75139,0.0224-4.5036,2.9319-8.3383,6.4656l-6.9721,6.425-2.5279-2.1914c-1.3903-1.2053-4.6271-4.1727-7.1928-6.5943l-4.665-4.4029-2.835,2.0522c-5.7336,4.1503-14.622,14.014-14.027,15.566,2.0003,5.2126,15.174,7.217,25.16,3.8281,4.5958-1.5597,6.434-1.776,7.9943-0.94101,7.4928,4.01,16.819,4.247,24.315,0.61801zm-48.801-3.6835-2.2452-1.818,4.8844-4.6411,4.8844-4.6411,4.3769,4.3492c2.4073,2.3921,4.0786,4.832,3.7139,5.4221-0.80074,1.2956-7.0789,3.1336-10.73,3.1414-1.4516,0.003-3.6495-0.81253-4.8844-1.8124zm32.024,1.1048c-4.2108-1.5589-4.1259-2.5297,0.60609-6.9364,2.5694-2.3927,4.9678-4.3504,5.3298-4.3504,0.90707,0,8.0641,7.4047,8.0641,8.3432,0,2.2576-10.111,4.3834-14,2.9436zm32,0c-4.1941-1.5527-4.1715-2.5364,0.15969-6.9495,2.3412-2.3855,4.7467-4.3373,5.3456-4.3373,1.8737,0,8.9785,7.9236,7.9462,8.862-2.5653,2.3322-10.055,3.6822-13.451,2.4248zm32,0c-4.2644-1.5787-4.1793-2.536,0.66177-7.451l4.7628-4.8355,4.2877,4.2081c2.3582,2.3144,4.2877,4.5155,4.2877,4.8913,0,1.0344-7.7319,3.9113-10.27,3.8214-1.2264-0.0434-2.9048-0.32884-3.7298-0.63427zm30.25-1.3179c-3.2606-1.3106-2.8142-2.7711,2.3636-7.7323l4.6136-4.4206,3.8864,3.795c2.1375,2.0872,3.8864,4.4016,3.8864,5.143,0,3.0553-9.8214,5.1959-14.75,3.2149zm46.679-27.384c1.9602-2.3619,7.9945-20.985,8.047-24.835,0.0226-1.6563-5.9194-1.75-110.98-1.75-93.411,0-111,0.21746-111,1.3724,0,1.5098,4.0274,14.099,6.2792,19.628,0.78402,1.925,1.7044,4.2915,2.0452,5.2589,0.58597,1.6633,6.1634,1.7574,102.54,1.7317,85.344-0.0228,102.11-0.25137,103.06-1.4053zm-196.24-5.24c-0.35492-0.35493,6.825-4.8592,15.955-10.009l16.601-9.3641,13.926,7.9767c7.6594,4.3872,14.467,8.0779,15.128,8.2016,0.66091,0.12368,8.0642-3.2394,16.452-7.4735l15.25-7.6984,14.963,7.4941,14.963,7.4941,15.364-7.5787,15.364-7.5787,11.423,6.1352c6.2828,3.3743,14,7.3527,17.149,8.8408,3.1492,1.4881,5.7367,3.0432,5.75,3.4556,0.0295,0.91245-187.38,1.0166-188.29,0.10469zm81.207-40.899c1.1648-0.42137,1.289-4.3432,0.75168-23.73-0.35405-12.774-0.7127-34.815-0.79701-48.979-0.11439-19.22-0.47024-26.016-1.4027-26.79-1.3986-1.1608-92.5-0.32175-93.556,0.8616-0.63556,0.71272-1.4361,4.7613-4.8807,24.682-1.1412,6.6-2.5331,14.611-3.0931,17.803-3.2427,18.481-3.3213,56.278-0.11837,56.9,2.6078,0.50623,101.61-0.21049,103.1-0.74633zm-65.395-10.474-17-6.8991-0.26798-24.773c-0.14738-13.625-0.0416-25.363,0.23517-26.085,0.35263-0.91894,1.0311-1.031,2.268-0.37443,0.97066,0.5152,4.1738,1.6491,7.118,2.5198,4.6044,1.3617,5.1817,1.3766,4.1276,0.1064-0.67406-0.8122-1.8455-1.4767-2.6031-1.4767-1.521,0-1.8914-2.5644-0.4951-3.4274,0.48536-0.29996,2.0188,0.34848,3.4077,1.441s2.9793,1.9864,3.5342,1.9864c0.55491,0,1.2098,0.5625,1.4554,1.25,0.24554,0.6875,0.73304,0.9875,1.0833,0.66667,0.3503-0.32084-0.70059-1.8958-2.3353-3.5-3.0688-3.0114-3.8978-5.4167-1.867-5.4167,0.63844,0,2.4384,1.431,4,3.1801,3.3144,3.7123,4.019,1.5894,0.8216-2.4754-2.5338-3.2212-0.6957-4.8475,2.0942-1.8529,1.0579,1.1355,1.9234,2.3384,1.9234,2.6731,0,1.1262,5.2736,7.5348,5.782,7.0265,0.27668-0.27667,0.0409-1.0764-0.52398-1.7772-1.5218-1.888-3.2673-11.139-2.2888-12.132,1.1645-1.1806,2.8309,2.2345,3.6508,7.4821,1.1517,7.3703,2.8203,6.6767,3.38-1.405,0.275-3.9708,0.95-7.2197,1.5-7.2197s1.1354,3.15,1.3009,7c0.32646,7.5941,1.7049,10.603,2.7001,5.8946,2.3619-11.175,3.6095-13.684,5.7437-11.55,0.76065,0.76065,0.74812,1.4589-0.0433,2.4125-0.61257,0.7381-1.4321,3.3447-1.8212,5.7924-0.64099,4.0321-0.55475,4.3244,0.91741,3.1101,0.8937-0.73716,1.9224-2.2776,2.286-3.4231,0.86737-2.7328,4.2064-6.2799,5.0848-5.4015,0.37924,0.37923-0.26831,2.484-1.439,4.6772-2.5215,4.724-1.696,5.1845,1.7706,0.98771,2.4378-2.9513,5-3.9711,5-1.9902,0,0.55538-0.9,1.7804-2,2.7222-1.1,0.94185-2,2.0624-2,2.4902,0,1.3195,2.7755,0.85941,4.3571-0.72224,1.6834-1.6834,4.6429-2.0185,4.6429-0.52568,0,0.53588-1.3918,1.6941-3.0929,2.5737-1.7011,0.87968-2.8302,1.8621-2.5091,2.1832s3.2945-0.83708,6.6076-2.5737,6.4672-3.1576,7.0091-3.1576c0.62227,0,0.98538,9.7213,0.98538,26.381v26.381l-8.25,3.5423c-15.457,6.6367-25.999,10.695-27.626,10.636-0.89337-0.0327-9.2743-3.164-18.624-6.9586zm16.271-21.107-0.27071-20.125-13.75-4.8413-13.75-4.8412,0,19.892,0,19.892,10.75,4.0938c5.9125,2.2516,11.65,4.5045,12.75,5.0064,4.5786,2.0892,4.5567,2.1871,4.2707-19.077zm20.906,14.875,12.275-5.25,0.0239-20.188,0.0239-20.188-10.75,4.5527c-5.9125,2.504-11.65,4.7992-12.75,5.1004-2.9859,0.81768-3.4683,2.0958-3.4806,9.2231-0.0177,10.221,1.2317,32,1.8357,32,0.30053,0,6.0704-2.3625,12.822-5.25zm156.97,15.935c0.42887-0.42887,0.7921-12.121,0.80716-25.982,0.0254-23.401-0.16476-26.168-2.6608-38.703-1.4785-7.425-2.9782-14.625-3.3327-16-0.35448-1.375-1.0519-4.75-1.5499-7.5-0.49796-2.75-1.2768-6.35-1.7307-8l-0.8253-3h-49.928-49.928l0.35504,49.5c0.19528,27.225,0.58715,49.883,0.87084,50.35,0.64332,1.0602,106.85,0.4057,107.92-0.66504zm-63.648-5.5481c-1.7882-2.0224-6-10.402-6-11.937,0-1.9517-2.0469-2.3986-4.294-0.93734-3.6591,2.3795-12.24,4.0574-14.518,2.8387-4.2618-2.2808-4.5208-12.612-0.47108-18.792,1.6686-2.5466,0.98886-4.3086-1.6621-4.3086-2.1678,0-5.3523-1.6048-9.8053-4.9411-3.4077-2.5532-4.1303-5.5456-2.207-9.1392,1.1648-2.1765,8.188-6.9197,10.246-6.9197,0.73081,0,2.0984-0.56281,3.0392-1.2507,1.604-1.1729,1.5853-1.4961-0.29993-5.1939-4.1328-8.1062-3.4136-15.919,1.5807-17.172,2.6346-0.66123,12.091,1.3225,12.953,2.7172,0.30576,0.49474,1.6043,0.89952,2.8856,0.89952,1.8793,0,2.4591-0.6899,2.9991-3.5683,0.93243-4.9703,5.4834-11.185,8.7445-11.941,4.1448-0.96104,6.1977,0.80095,9.8548,8.4584,1.852,3.8779,3.9651,7.0508,4.6958,7.0508,0.73066,0,2.3807-0.68946,3.6668-1.5321,1.2861-0.84268,4.5769-1.7973,7.3129-2.1213,4.333-0.51318,5.252-0.29127,7.1265,1.7207,1.1836,1.2704,2.1454,3.4625,2.1374,4.8713-0.0146,2.5682-2.2357,9.792-4.0572,13.196-0.80759,1.509-0.50276,1.9315,1.7998,2.4948,6.885,1.6841,11.99,5.711,12.88,10.16,0.74749,3.7375-2.6564,7.5822-9.5336,10.768l-4.9537,2.2951,1.0327,3.8239c0.568,2.1032,1.4409,4.2514,1.9398,4.7739,0.49889,0.5225,0.90707,2.885,0.90707,5.25,0,5.5656-2.5659,8.3-7.7886,8.3-2.0837,0-5.5538-0.9-7.7114-2s-4.4045-2-4.9931-2c-0.58863,0-1.6487,1.9591-2.3557,4.3536-1.9415,6.5754-6.5525,11.666-10.474,11.563-1.7475-0.0458-3.8522-0.84673-4.6772-1.7798zm8.9818-3.3869c2.3714-3.6474,5.0182-9.8323,5.0182-11.726,0-0.96685-1.8464-2.9798-4.1032-4.4733-4.6616-3.0849-6.8797-2.8868-11.262,1.0061-3.391,3.0125-3.1718,6.1457,0.91827,13.125,1.999,3.411,3.1019,4.3186,5.2482,4.3186,1.7178,0,3.2554-0.82759,4.1802-2.25zm-20.53-11.466,3.665-1.7838-0.63561-5.9939c-0.34959-3.2967-0.81771-6.176-1.0403-6.3986-0.22256-0.22256-2.9075-0.5883-5.9666-0.81275-4.8675-0.35715-5.7973-0.12012-7.4476,1.8986-2.4321,2.9751-3.5819,10.901-2.0079,13.842,1.027,1.9191,1.7464,2.132,5.4752,1.6209,2.361-0.32362,5.942-1.3911,7.9578-2.3721zm46.453,1.1452c1.2279-1.2279,0.27713-8.2214-1.7287-12.716l-2.1363-4.787-5.2696,0.67252c-2.8983,0.36988-5.4123,0.79172-5.5867,0.93742-0.37423,0.31269-3.1137,11.888-2.8579,12.076,0.0962,0.0706,2.6499,1.3247,5.6749,2.7868,5.0711,2.4512,10.052,2.8823,11.904,1.0303zm-35.904-8.429c2.6834-2.6834,2.5186-4.4427-0.54705-5.8395-3.9846-1.8155-4.453-1.4642-4.453,3.3395,0,5.087,1.6086,5.8914,5,2.5zm16.81-3.389c0.26581-4.1753,0.0756-4.7811-1.3318-4.241-0.90304,0.34653-2.204,0.63005-2.8911,0.63005-0.68708,0-1.8434,1.1102-2.5696,2.4671-1.1901,2.2237-1.0834,2.6659,1.081,4.4815,3.7784,3.1694,5.3559,2.2476,5.7115-3.3376zm-2.075-10.35c2.8295-3.2895,3.237-4.482,3.25-9.511,0.008-3.1625-0.32262-5.7521-0.73512-5.7546-0.4125-0.003-2.1881-1.3525-3.9458-3-2.4886-2.3326-4.114-2.9954-7.3457-2.9954-8.023,0-12.959,5.221-12.959,13.708,0,4.2306,0.44374,5.3192,3.25,7.9729,4.1881,3.9606,5.3202,4.3611,10.75,3.8033,3.6748-0.3775,5.0932-1.1519,7.7351-4.2233zm-24.223,2.7194c0.95663-1.5479-1.4789-7.9804-3.0215-7.9804-1.4198,0-5.4905,5.0674-5.4905,6.8348,0,1.738,7.5204,2.7502,8.5121,1.1456zm37.935-1.11c1.163-1.062-2.4873-6.2382-4.7076-6.6754-1.6836-0.33152-4.3556,5.9994-3.272,7.7526,0.66986,1.0838,6.4706,0.30078,7.9796-1.0772zm-48.447-2.3705c0.52277-1.375,1.2991-2.5035,1.7252-2.5078,0.42611-0.004,1.317-1.1761,1.9797-2.6039,0.98856-2.1299,0.92301-3.0264-0.36501-4.9922-0.86348-1.3178-1.9157-2.3961-2.3383-2.3961s-1.0148-0.94256-1.3161-2.0946c-0.47034-1.7986-1.0168-1.9917-3.8666-1.3667-3.9992,0.87712-9.8473,3.9022-10.973,5.6758-1.6474,2.5964-0.84891,5.7376,1.9038,7.4893,1.5125,0.96247,2.975,2.013,3.25,2.3345,0.46172,0.53981,6.4962,2.6252,8.2748,2.8595,0.42611,0.0562,1.2025-1.0229,1.7252-2.3979zm60.191-1.1693c3.18-1.4681,6.0312-3.4548,6.3359-4.415,1.0706-3.3731-0.54656-6.3804-4.3268-8.0463-9.2849-4.0918-9.5276-4.1419-10.909-2.2522-0.70986,0.9708-1.2906,2.3541-1.2906,3.074,0,0.71988-0.44143,1.3089-0.98095,1.3089s-1.2544,1.0893-1.5885,2.4208c-0.70902,2.825,4.0182,10.48,6.5239,10.564,0.24996,0.008,3.0563-1.1859,6.2364-2.654zm-50.191-13.831c0-3.4167-0.0952-3.5-4-3.5-4.4014,0-4.9872,1.1455-2.4433,4.7775,0.88639,1.2655,2.6088,2.2225,4,2.2225,2.1257,0,2.4433-0.45499,2.4433-3.5zm37.042,1.4219c1.6213-3.0294,0.46383-4.9219-3.0104-4.9219-2.6823,0-3.0314,0.33588-3.0314,2.9167,0,4.2422,4.1139,5.6075,6.0418,2.0052zm-39.042-7.8122c2.5365-0.7011,4.8251-5.2279,4.9436-9.7781,0.11375-4.3703-12.886-9.2841-16.54-6.2519-1.9812,1.6443-1.1904,9.7805,1.3724,14.119,1.7239,2.9184,4.6204,3.4598,10.224,1.911zm46.214-5.1096c4.5816-9.2839,2.0994-13.598-6.644-11.547-9.5036,2.2292-10.656,3.9187-8.2158,12.047,1.0836,3.6096,1.5884,4.0603,5.1731,4.6179,6.2849,0.97766,6.8172,0.69642,9.6866-5.1179zm-35.165,3.4743c3.0394-1.5717,4.1496-5.4743,1.5573-5.4743-0.76616,0-1.652-0.675-1.9686-1.5-1.1212-2.9219-3.4079-1.5953-3.8781,2.25-0.43773,3.5796-0.0547,6.25,0.89641,6.25,0.24347,0,1.7703-0.68656,3.393-1.5257zm17.95-1.4092c0-1.0642-0.4488-3.1153-0.99734-4.5581-0.9955-2.6184-1.0029-2.6199-4-0.84949-3.3976,2.007-3.8178,4.0032-1.2527,5.9504,2.7141,2.0603,6.25,1.7532,6.25-0.54285zm-8.9043-5.7807c1.5974-0.94358,2.9043-2.0161,2.9043-2.3834,0-0.36726,0.91797-0.90781,2.0399-1.2012,2.4691-0.64568,1.9971-3.4492-1.7768-10.554-3.6955-6.9571-5.8547-7.781-9.4764-3.6156-2.1636,2.4884-6.0235,11.313-5.5358,12.656,0.23081,0.63578,7.82,6.5918,8.5948,6.7453,0.19014,0.0377,1.6526-0.70354,3.25-1.6471zm-5.0957-46.152c0-0.47692-1.8-2.0583-4-3.5142s-4-3.0907-4-3.6329c0-0.54219-0.675-0.98581-1.5-0.98581s-1.5-0.675-1.5-1.5-0.40793-1.5-0.90652-1.5c-1.1495,0-12.103-16.072-12.098-17.75,0.002-0.6875-0.44573-1.25-0.99573-1.25s-1-0.40989-1-0.91087c0-0.50097-1.4988-4.2135-3.3308-8.25-4.7236-10.408-5.4663-12.262-7.6823-19.18-3.4981-10.92-3.812-12.065-4.977-18.159-0.63094-3.3-1.5734-7.6511-2.0944-9.669-0.521-2.018-1.3849-8.318-1.9197-14-1.0936-11.618-1.885-18.265-2.5695-21.581-0.435-2.1073-0.97223-2.25-8.4702-2.25-9.6474,0-9.4395-0.30248-10.311,15-0.60682,10.65-3.3016,28.574-5.9384,39.5-2.2225,9.2092-9.9788,31.837-11.422,33.321-0.7065,0.72678-1.2846,2.1627-1.2846,3.191s-0.39321,2.1126-0.8738,2.4096c-0.48059,0.29702-2.7701,3.6785-5.0878,7.5145-3.905,6.463-7.3543,10.637-16.788,20.314l-3.6559,3.75h56.203c31.06,0,56.203-0.38791,56.203-0.86711zm-58-6.6302c0-1.3987-0.53413-1.5983-2.75-1.0276-5.0928,1.3117-19.002,1.7349-19.704,0.59947-0.36528-0.59104-1.7258-1.0746-3.0233-1.0746-3.3549,0-5.5228-0.99863-5.5228-2.5441,0-1.5042,5.9359-1.0498,9.6486,0.73856,1.1817,0.56923,3.8817,0.77859,6,0.46523,13.881-2.0535,18.292-3.0626,18.764-4.2928,0.42606-1.1103-1.7928-1.3668-11.822-1.3668-9.7544,0-12.608-0.31488-13.591-1.5-0.68469-0.825-1.8648-1.5-2.6224-1.5-0.75766,0-1.3776-0.675-1.3776-1.5,0-1.802,3.1139-1.9861,4.8153-0.28473,1.9975,1.9975,20.652,2.3535,24.506,0.46763,1.7484-0.85548,3.9664-1.795,4.9289-2.0878,0.9625-0.29279,1.75-0.90987,1.75-1.3713,0-1.5818-7.6717-4.2238-12.265-4.2238-5.6221,0-7.9668-1.9827-7.5394-6.3754,0.38229-3.9292,2.1379-3.9716,2.8129-0.0679,0.49275,2.8497,0.71058,2.954,6.8494,3.2784l6.3405,0.33512-0.34941-4.8351c-0.42524-5.8844,1.2966-7.2683,2.5798-2.0734,0.90189,3.6511,1.0342,3.7431,4.5,3.1287,5.27-0.9342,5.8311-1.9874,2.7642-5.1885-2.9378-3.0664-3.6231-7.2018-1.1934-7.2018,0.825,0,1.5,0.64234,1.5,1.4274,0,0.78508,1.0364,2.2476,2.3032,3.25,1.2667,1.0024,2.6014,2.6069,2.9659,3.5654,0.88344,2.3233-2.6033,5.5008-7.4761,6.8129-3.9645,1.0675-4.8393,2.3288-2.293,3.3059,2.7172,1.0427,1.7674,5.8494-1.75,8.8558-3.5094,2.9996-2.3861,3.68,2.1785,1.3196,3.0193-1.5613,4.0715-3.3517,4.0715-6.9276,0-1.2249,0.61798-3.0722,1.3733-4.1052,1.3397-1.8322,1.3878-1.8308,1.9691,0.0589,0.78871,2.5639-0.85681,9.5188-2.4911,10.529-0.71135,0.43963-1.0079,1.0848-0.65908,1.4336,0.76759,0.7676,5.8078-2.3918,5.8078-3.6405,0-0.48674,0.675-0.88499,1.5-0.88499s1.5-0.62622,1.5-1.3916c0-1.7106,4.9225-3.0859,6.2596-1.7489,0.62701,0.62701-0.0433,1.4974-1.8946,2.4603-1.5757,0.81954-3.9899,2.7158-5.3649,4.214-3.3132,3.6099-7.9117,5.4661-13.541,5.4661-3.8545,0-4.5476,0.28533-4.2509,1.75,0.2935,1.4485,1.3759,1.7276,6.2832,1.6202,3.3775-0.0739,6.0894-0.61181,6.3021-1.25,0.20538-0.61613,1.0153-1.1202,1.7999-1.1202,0.78455,0,2.1971-0.9,3.1389-2,0.94185-1.1,2.1395-2,2.6615-2,0.52196,0,1.7826-0.75437,2.8014-1.6764,1.3463-1.2184,2.1527-1.3761,2.9515-0.57727,1.3098,1.3098-3.1179,6.2536-5.6009,6.2536-0.85,0-1.5454,0.41704-1.5454,0.92676,0,2.2752-6.8313,4.3715-15.75,4.8331-8.298,0.42947-9.25,0.30009-9.25-1.2571zm25.173-24.067c0.17982-1.53,0.92406-2.9781,1.6539-3.218,0.93523-0.30736,1.2304,0.38509,1,2.3458-0.17982,1.53-0.92406,2.9781-1.6539,3.218-0.93523,0.30736-1.2304-0.38509-1-2.3458zm-37.269-9.7609c-0.0527-0.0963-0.64967-3.2884-1.3265-7.0934-1.2806-7.1995-0.46266-11.558,2.1724-11.574,1.5502-0.01,1.6381,1.6343,0.13686,2.5621-1.3372,0.82642-0.70028,11.017,0.78111,12.498,1.1256,1.1256,4.332,0.21926,4.332-1.2245,0-0.51842,1.5713-2.5605,3.4917-4.5379,3.2548-3.3514,3.4603-3.9416,3.0285-8.7004-0.25478-2.8078-0.71415-13.477-1.0208-23.709-0.48126-16.057-0.34497-18.78,0.9957-19.892,0.8543-0.70901,1.8384-1.004,2.1869-0.65546,0.34851,0.34851,0.71149,11.637,0.80662,25.086,0.18293,25.863,0.56129,27.999,4.8456,27.363,2.8054-0.41646,3.0445-2.0147,0.68091-4.5517-2.9268-3.1416-2.6624-7.046,0.53149-7.8476,3.2251-0.80945,4.4934,0.36742,2.2019,2.043-2.1434,1.5673-2.2824,3.558-0.24843,3.558,0.825,0,1.5-0.45,1.5-1s0.73425-1,1.6317-1c2.3424,0,1.2466,7.1218-1.5218,9.8901-2.2012,2.2012-6.544,2.8346-7.6099,1.1099-0.33992-0.55-1.7165-1-3.059-1-1.9035,0-2.441,0.52349-2.441,2.3776,0,1.3076,0.675,2.9378,1.5,3.6224,2.7919,2.3171,1.5218,2.9287-6,2.8895-4.125-0.0215-7.5432-0.11798-7.5959-0.21431zm4.8061-29.675c0.28947-1.1069,1.364-2,2.4064-2,2.4448,0,2.4166,1.6442-0.0509,2.9648-2.6802,1.4344-2.9536,1.3224-2.3555-0.96482zm-1.7102-3.4886c0-0.86123,3.4162-4.5114,4.2222-4.5114,1.4153,0,0.80707,2.2573-0.97224,3.608-1.7973,1.3644-3.25,1.7682-3.25,0.90348z"/>
</svg>
