<svg id="Capa_1" enable-background="new 0 0 512 512" height="512" viewBox="0 0 512 512" width="512" xmlns="http://www.w3.org/2000/svg"><g><path d="m512 55c0-30.376-24.624-55-55-55h-80c-8.284 0-15 6.716-15 15v95h135c8.284 0 15-6.716 15-15z" fill="#ff6426"/><path d="m55 0c-30.376 0-55 24.624-55 55v40c0 8.284 6.716 15 15 15h362v-110z" fill="#beebfa"/><path d="m256 0h121v110h-121z" fill="#7ed8f7"/><path d="m0 95v362c0 30.327 24.673 55 55 55h402c30.327 0 55-24.673 55-55v-362z" fill="#fff5f5"/><path d="m256 95v417h201c30.327 0 55-24.673 55-55v-362z" fill="#ebe1dc"/><path d="m199.001 415.916c-.019 0-.038 0-.057 0-8.756.049-18.187.083-24.961.084v-90c0-5.523-4.477-10-10-10s-10 4.477-10 10v99.916c0 4.871 3.509 9.033 8.31 9.856.713.123 1.358.233 12.341.233 5.32 0 13.067-.026 24.421-.089 5.523-.031 9.975-4.533 9.944-10.056-.03-5.504-4.501-9.944-9.998-9.944z" fill="#828282"/><path d="m121.419 368.839c4.165-5.525 6.638-12.393 6.638-19.829 0-18.202-14.808-33.01-33.01-33.01h-29.047c-5.523 0-10 4.477-10 10v100c0 2.66 1.06 5.21 2.945 7.087 1.874 1.866 4.411 2.913 7.055 2.913h.044c.267-.001 26.81-.119 34.076-.119 20.356 0 36.917-16.561 36.917-36.917 0-12.427-6.178-23.431-15.618-30.125zm-26.372-32.839c7.174 0 13.01 5.836 13.01 13.01s-5.836 13.01-13.01 13.01c-3.663.004-14.111.039-19.047.027v-26.047zm5.074 79.881c-4.385 0-15.705.042-24.121.076v-33.877c5.545-.037 18.376-.035 24.121-.032 9.328 0 16.917 7.589 16.917 16.917s-7.59 16.916-16.917 16.916z" fill="#828282"/><path d="m446 366h-29.915c-5.523 0-10 4.477-10 10s4.477 10 10 10h19.05c-2.725 15.435-12.174 30-32.298 30-22.056 0-40-17.944-40-40s17.944-40 40-40c8.017 0 15.748 2.36 22.357 6.825 4.578 3.093 10.793 1.888 13.884-2.688 3.092-4.577 1.888-10.792-2.688-13.884-9.928-6.708-21.53-10.253-33.553-10.253-33.084 0-60 26.916-60 60s26.916 60 60 60c31.302 0 53.163-24.673 53.163-60 0-5.523-4.477-10-10-10z" fill="#5a5a5a"/><path d="m266 316c-33.084 0-60 26.916-60 60s26.916 60 60 60 60-26.916 60-60-26.916-60-60-60zm0 100c-22.056 0-40-17.944-40-40s17.944-40 40-40 40 17.944 40 40-17.944 40-40 40z" fill="#828282"/><path d="m266 316c-3.408 0-6.746.301-10 .849v20.417c3.197-.826 6.548-1.266 10-1.266 22.056 0 40 17.944 40 40s-17.944 40-40 40c-3.452 0-6.803-.44-10-1.266v20.417c3.254.549 6.592.849 10 .849 33.084 0 60-26.916 60-60s-26.916-60-60-60z" fill="#5a5a5a"/><path d="m416 271h-320c-8.284 0-15-6.716-15-15v-80c0-8.284 6.716-15 15-15h320c8.284 0 15 6.716 15 15v80c0 8.284-6.716 15-15 15z" fill="#7ed8f7"/><path d="m416 161h-160v110h160c8.284 0 15-6.716 15-15v-80c0-8.284-6.716-15-15-15z" fill="#2fc0f0"/></g></svg>